        CONTROL INFO 2.0.4
** GAMBIT NEUTRAL FILE
AIRFOIL
PROGRAM:                Gambit     VERSION:  2.0.4
 May 2007     
     NUMNP     NELEM     NGRPS    NBSETS     NDFCD     NDFVL
       409       776         1         3         2         2
ENDOFSECTION
   NODAL COORDINATES 2.0.4
         1   0.0000000000e+000   0.0000000000e+000
         2   1.0000000000e+000   0.0000000000e+000
         3   1.0000000000e+001   0.0000000000e+000
         4   9.7815819538e+000   2.0786184068e+000
         5   9.1357798900e+000   4.0666356860e+000
         6   8.0907020032e+000   5.8771201362e+000
         7   6.6919450337e+000   7.4308728738e+000
         8   5.0006040494e+000   8.6599052617e+000
         9   3.0905996322e+000   9.5104255380e+000
        10   1.0454399250e+000   9.9452026306e+000
        11  -1.0454399250e+000   9.9452026306e+000
        12  -3.0905996322e+000   9.5104255380e+000
        13  -5.0006040494e+000   8.6599052617e+000
        14  -6.6919450337e+000   7.4308728738e+000
        15  -8.0907020032e+000   5.8771201362e+000
        16  -9.1357798900e+000   4.0666356860e+000
        17  -9.7815819538e+000   2.0786184068e+000
        18  -1.0000000000e+001  -1.2098069942e-014
        19  -9.7815819538e+000  -2.0786184068e+000
        20  -9.1357798900e+000  -4.0666356860e+000
        21  -8.0907020032e+000  -5.8771201362e+000
        22  -6.6919450337e+000  -7.4308728738e+000
        23  -5.0006040494e+000  -8.6599052617e+000
        24  -3.0905996322e+000  -9.5104255380e+000
        25  -1.0454399250e+000  -9.9452026306e+000
        26   1.0454399250e+000  -9.9452026306e+000
        27   3.0905996322e+000  -9.5104255380e+000
        28   5.0006040494e+000  -8.6599052617e+000
        29   6.6919450337e+000  -7.4308728738e+000
        30   8.0907020032e+000  -5.8771201362e+000
        31   9.1357798900e+000  -4.0666356860e+000
        32   9.7815819538e+000  -2.0786184068e+000
        33   1.5452233654e-001   5.2642941982e-002
        34   3.2405789210e-001   5.8627918531e-002
        35   4.9363168789e-001   5.2077588767e-002
        36   6.6283106823e-001   3.8898645461e-002
        37   8.3164119141e-001   2.1401953782e-002
        38   8.3164119141e-001  -2.1401953782e-002
        39   6.6283106823e-001  -3.8898645461e-002
        40   4.9363168789e-001  -5.2077588767e-002
        41   3.2405789210e-001  -5.8627918531e-002
        42   1.5452233654e-001  -5.2642941982e-002
        43   7.8294580143e-001   2.7176806476e-001
        44  -4.4698392979e-001   1.3780796625e+000
        45   1.4899186666e+000   1.1444697407e+000
        46   2.2700050309e+000   9.7834791121e-002
        47   1.0048303888e+000   2.3180975264e-001
        48   5.6855357180e-001   2.8976267520e-001
        49   3.4917323854e-001   2.8940873723e-001
        50   1.1923060039e-001   2.6586526972e-001
        51  -9.4217657150e-002   1.7847953160e-001
        52   7.7166815868e-001  -2.7526942348e-001
        53   1.0297265821e+000  -2.5615253297e-001
        54   5.4047903196e-001  -2.8183685525e-001
        55   2.8966396819e-001  -2.5683564317e-001
        56   2.6386879690e-002  -2.5364438457e-001
        57  -1.7764201951e-001  -1.9277009924e-001
        58   4.9424530688e+000   6.7486866188e+000
        59   3.4274144868e+000   7.6214681277e+000
        60   6.2427023250e+000   5.5776728949e+000
        61   1.7648828107e+000   8.1577606646e+000
        62   1.8154330657e-002   8.3404882861e+000
        63  -1.7309455244e+000   8.1639592900e+000
        64  -3.3984311071e+000   7.6255843045e+000
        65  -4.9156917439e+000   6.7419732296e+000
        66  -6.2152729308e+000   5.5557307651e+000
        67  -7.2386278905e+000   4.1210307482e+000
        68  -7.9449884734e+000   2.5042356322e+000
        69  -8.3251886234e+000   7.8568458435e-001
        70  -8.4040013132e+000  -9.3318548752e-001
        71  -8.0479494020e+000  -2.6120809675e+000
        72  -7.2756010331e+000  -4.1532259249e+000
        73  -6.2217160315e+000  -5.5618385525e+000
        74  -4.9044120235e+000  -6.7404586272e+000
        75  -3.3733153476e+000  -7.6199255003e+000
        76  -1.6930098122e+000  -8.1544538279e+000
        77   6.9524114699e-002  -8.3268969100e+000
        78   1.8298535185e+000  -8.1415023570e+000
        79   3.5026740622e+000  -7.6225548009e+000
        80   5.0257238426e+000  -6.8334331769e+000
        81   6.2929155329e+000  -5.6873759116e+000
        82   7.2654342592e+000   4.1588102760e+000
        83   7.2314165830e+000  -4.2509332100e+000
        84   7.9622860372e+000   2.5535255543e+000
        85   7.9182404582e+000  -2.6421716385e+000
        86   8.3073028806e+000   8.3224342931e-001
        87   8.2889049403e+000  -9.2210928194e-001
        88   2.1968870066e+000   6.5791351775e+000
        89   3.5274282366e+000   5.9881953170e+000
        90   4.7072718413e+000   5.1332667062e+000
        91   5.6796435315e+000   4.0488874903e+000
        92   6.3964558316e+000   2.7794553946e+000
        93   6.8230246104e+000   1.3800825420e+000
        94   6.9398560000e+000  -8.4995186148e-002
        95   7.6939864532e-001   6.8860829577e+000
        96  -6.9606025062e-001   6.8939030794e+000
        97  -2.1304094490e+000   6.5923510323e+000
        98  -3.4654840365e+000   5.9872573627e+000
        99  -4.6435013603e+000   5.1043495762e+000
       100  -5.6124046478e+000   3.9859743003e+000
       101  -6.3329217943e+000   2.6803279992e+000
       102  -6.7836956644e+000   1.2440438251e+000
       103  -6.9801198134e+000  -2.4186218168e-001
       104  -7.0956202941e+000  -1.5500646157e+000
       105  -6.4511856888e+000  -2.7054921209e+000
       106  -5.6557095005e+000  -3.9789335260e+000
       107  -4.6433808354e+000  -5.0962519637e+000
       108  -3.4331567162e+000  -5.9776651704e+000
       109  -2.0705109028e+000  -6.5776381387e+000
       110  -6.0856738534e-001  -6.8721131670e+000
       111   8.9014712624e-001  -6.8541403372e+000
       112   2.3591804907e+000  -6.5344461548e+000
       113   3.7346040639e+000  -5.9646114853e+000
       114   4.9119703768e+000  -5.4090568795e+000
       115   5.5820870461e+000  -4.2815004830e+000
       116   6.2795014792e+000  -2.9675455546e+000
       117  -2.7727639969e-001   1.9248561750e-003
       118   6.8564311122e-001   5.2639479670e-001
       119   9.3954503588e-001   4.9268414489e-001
       120   4.3223571725e-001   5.3119309116e-001
       121   1.6501157483e-001   5.0865187421e-001
       122  -1.4374990600e-001   4.5619839334e-001
       123   8.9661966745e-001  -5.1011375721e-001
       124   6.4526832771e-001  -5.1969226432e-001
       125   3.8244666112e-001  -5.1293120959e-001
       126   1.0318973950e-001  -4.9627108420e-001
       127  -2.0910616641e-001  -4.5372809688e-001
       128   1.2211609968e+000  -1.0454948118e-001
       129   1.2456664694e+000   1.4522688003e-001
       130   6.7501514196e+000  -1.5515561887e+000
       131   1.2643593602e+000   5.6008689554e+000
       132   2.4182165132e+000   5.2230102424e+000
       133   3.4713564978e+000   4.6229534765e+000
       134   5.6077561223e-002   5.7421498436e+000
       135  -1.1583556560e+000   5.6258843811e+000
       136  -2.3169574037e+000   5.2395527979e+000
       137  -3.3640493985e+000   4.6027334411e+000
       138  -4.2576544234e+000   3.7477891485e+000
       139  -4.9592914082e+000   2.7111227234e+000
       140  -5.4421590140e+000   1.5257348216e+000
       141  -5.6936549702e+000   2.1380311914e-001
       142  -5.7373658970e+000  -1.2811520627e+000
       143   4.3759079998e+000   3.8154707836e+000
       144   5.0837087195e+000   2.8320092688e+000
       145   5.5582686938e+000   1.7122494527e+000
       146   5.7731581523e+000   5.0799660293e-001
       147  -5.0736235418e+000  -2.6303537537e+000
       148  -4.2916085885e+000  -3.7180605876e+000
       149  -3.3450550181e+000  -4.5874251332e+000
       150  -2.2541182253e+000  -5.2216318787e+000
       151  -1.0564242645e+000  -5.6000827189e+000
       152   2.0169639114e-001  -5.7095827022e+000
       153   1.4724241387e+000  -5.5468525204e+000
       154   2.7295593524e+000  -5.1126028687e+000
       155   4.0268039421e+000  -4.3980885157e+000
       156   4.8488184643e+000  -3.1569011194e+000
       157   5.7156051996e+000  -7.2962221257e-001
       158   5.4007822371e+000  -1.9539964008e+000
       159  -2.2956508161e+000  -4.0786423914e+000
       160  -1.3289244231e+000  -4.5082648601e+000
       161  -3.1534156954e+000  -3.4370105598e+000
       162  -3.8723430182e+000  -2.6054657149e+000
       163  -2.9050444122e-001  -4.7130311614e+000
       164   7.7707988430e-001  -4.6843708028e+000
       165   1.8356539025e+000  -4.4204664472e+000
       166   2.8491557529e+000  -3.9188218400e+000
       167   3.6778727985e+000  -3.1438866831e+000
       168  -4.4223283441e+000  -1.6026488443e+000
       169  -4.6671365573e+000  -4.8636404279e-001
       170  -4.5909232563e+000   6.5038313945e-001
       171  -4.2979222800e+000   1.7055555223e+000
       172  -3.8089638733e+000   2.6511223967e+000
       173  -3.1469925542e+000   3.4572378111e+000
       174  -2.3422828783e+000   4.0967110198e+000
       175  -1.4273080549e+000   4.5396088318e+000
       176  -4.3534856369e-001   4.7466632007e+000
       177   5.7558086170e-001   4.7144133325e+000
       178   1.5615986128e+000   4.4900806694e+000
       179   2.4939263364e+000   4.0899313291e+000
       180   3.3218929070e+000   3.5094252001e+000
       181   4.0030941526e+000   2.7654504939e+000
       182   4.4998367541e+000   1.8869831576e+000
       183   4.7848220223e+000   9.1487470530e-001
       184  -4.2446259054e-001  -2.3373447840e-001
       185   1.2132107945e+000   4.2466671770e-001
       186  -3.7260205222e-001   2.4291066025e-001
       187   1.1293038161e+000  -5.0363241949e-001
       188   1.3504348022e+000  -3.5097347629e-001
       189   1.4645007783e+000  -3.4185002133e-002
       190   8.3120886537e-001   7.6204073045e-001
       191   5.5251745264e-001   7.8023112010e-001
       192   2.7234292710e-001   7.6498612870e-001
       193  -1.1251561472e-002   7.2699314839e-001
       194   7.7481532044e-001  -7.5807110204e-001
       195   1.0404818018e+000  -7.4120537517e-001
       196   5.0092931055e-001  -7.5845058989e-001
       197   2.1776062628e-001  -7.4954118603e-001
       198  -7.7689978941e-002  -7.3306851603e-001
       199   4.8391351627e+000  -1.0937840438e-001
       200   4.6402071810e+000  -1.1458973875e+000
       201   4.2504592358e+000  -2.1592488406e+000
       202   7.3478022039e-002   3.9470185809e+000
       203   9.0019642241e-001   3.8011889478e+000
       204  -7.5967565965e-001   3.9105310921e+000
       205  -1.5368169743e+000   3.6143608273e+000
       206  -2.2476796336e+000   3.1443127313e+000
       207  -2.8565243250e+000   2.5273859693e+000
       208  -3.3342105349e+000   1.7849986428e+000
       209  -3.6532153160e+000   9.4442097760e-001
       210  -3.7906747646e+000   3.9023312606e-002
       211  -3.7098712021e+000  -8.7906898864e-001
       212  -3.3961545330e+000  -1.7468121952e+000
       213  -2.8841483014e+000  -2.5092985387e+000
       214  -2.2297125900e+000  -3.1288965067e+000
       215  -1.4646768121e+000  -3.5834445430e+000
       216  -6.2193855519e-001  -3.8531876723e+000
       217   2.6311940190e-001  -3.9271852940e+000
       218   1.1493074868e+000  -3.8009904283e+000
       219   1.9976349910e+000  -3.4763769123e+000
       220   2.7421295458e+000  -2.9516617076e+000
       221   1.7269804137e+000   3.5598020415e+000
       222   2.4806262125e+000   3.1614501657e+000
       223   3.1223949087e+000   2.6166549979e+000
       224   3.6232643535e+000   1.9438536709e+000
       225   3.9514646714e+000   1.1723712764e+000
       226   3.3185610856e+000  -2.2402119490e+000
       227   4.0910385644e+000   3.4365142769e-001
       228   4.0342539813e+000  -5.0720528833e-001
       229   3.6759492187e+000  -1.3537871161e+000
       230  -2.0837987927e+000  -2.3552865534e+000
       231  -1.4931627064e+000  -2.8064448747e+000
       232  -2.5648478802e+000  -1.7782637101e+000
       233  -2.9010249538e+000  -1.1016285857e+000
       234  -3.0615917497e+000  -3.6510232132e-001
       235  -3.0421912555e+000   3.9088210531e-001
       236  -2.8581781103e+000   1.1188935213e+000
       237  -2.5283722175e+000   1.7875995818e+000
       238  -2.0725428960e+000   2.3662854088e+000
       239  -8.2267453586e-001  -3.1161112327e+000
       240  -9.9194362266e-002  -3.2630061930e+000
       241   6.4122300357e-001  -3.2382126097e+000
       242   1.3579741792e+000  -3.0500356536e+000
       243   2.0136259927e+000  -2.7045274962e+000
       244  -1.5162615237e+000   2.8335020647e+000
       245  -8.9887262518e-001   3.1783120187e+000
       246  -2.9703268827e-001   3.3934874905e+000
       247   3.5204887818e-001   3.1386071161e+000
       248   1.1300329025e+000   3.0426928599e+000
       249   1.8189271967e+000   2.7935245890e+000
       250   2.4145765044e+000   2.4085582961e+000
       251   2.9001638612e+000   1.9098640021e+000
       252   3.2526986280e+000   1.3119588992e+000
       253   1.5263044765e+000   3.1350526273e-001
       254  -5.6466809652e-001   8.5078001010e-003
       255   1.1167624121e+000   7.1031932172e-001
       256  -5.3862781299e-001  -4.8374649440e-001
       257  -3.7260401674e-001  -7.2324031892e-001
       258   1.3133303677e+000  -6.7640789528e-001
       259   1.6624609121e+000  -2.7259827269e-001
       260   1.5971280852e+000  -5.9205604783e-001
       261   9.2652948725e-001  -1.0057434607e+000
       262   6.3479040888e-001  -1.0035945086e+000
       263   3.4322304655e-001  -1.0045042869e+000
       264   4.9558603627e-002  -9.9395098585e-001
       265  -3.0751533315e-001   7.3610507488e-001
       266  -4.8285208126e-001   5.0996533398e-001
       267   6.9492906634e-001   1.0434190401e+000
       268   1.0001802172e+000   1.0041202324e+000
       269   3.8990926879e-001   1.0400073749e+000
       270   9.6244150222e-002   9.9826680753e-001
       271   2.5557307181e+000  -2.2193793174e+000
       272   3.4437073609e+000   6.4814067597e-001
       273   3.4803604386e+000  -4.0733604482e-002
       274   3.4316582316e+000  -6.6200600646e-001
       275  -3.2559852094e-001   2.8240999191e+000
       276  -9.0707420235e-001   2.5428409130e+000
       277  -1.4215363268e+000   2.1852878238e+000
       278  -1.8562293815e+000   1.7355811475e+000
       279  -2.1879429179e+000   1.2041445602e+000
       280  -2.3995849570e+000   6.1728685311e-001
       281  -2.4827151402e+000  -3.3339438581e-003
       282  -2.4286539870e+000  -6.2394298251e-001
       283  -2.2274942323e+000  -1.2094929206e+000
       284  -1.8847185951e+000  -1.7295892550e+000
       285  -1.4371723325e+000  -2.1594066011e+000
       286  -9.1699847430e-001  -2.4866916676e+000
       287  -3.3915699335e-001  -2.6847754800e+000
       288   2.7389266829e-001  -2.7321680683e+000
       289   8.7808526290e-001  -2.6393556398e+000
       290   1.4491518789e+000  -2.4236395425e+000
       291   7.2428092970e-001   2.5395440518e+000
       292   1.4105249037e-001   2.4766198986e+000
       293   1.3156887213e+000   2.4185621558e+000
       294   1.8578853610e+000   2.1632912582e+000
       295   2.3138784483e+000   1.7962600732e+000
       296   2.6713045254e+000   1.3560734435e+000
       297   2.9401706159e+000  -1.6342812115e+000
       298   3.0333549311e+000  -1.0098446052e+000
       299   1.9516407503e+000  -2.0883940700e+000
       300   2.8950655762e+000   8.4164027231e-001
       301   2.9696711286e+000   2.7017601290e-001
       302   2.9246792048e+000  -3.6622390898e-001
       303  -4.0363836030e-001   2.2673956437e+000
       304  -8.8260711639e-001   1.9936453707e+000
       305  -1.2917472959e+000   1.6455163903e+000
       306  -1.6204884597e+000   1.2267653387e+000
       307  -1.8502476573e+000   7.5417325136e-001
       308  -1.9689816796e+000   2.4282000476e-001
       309  -1.9815281654e+000  -2.8012782407e-001
       310  -1.8967513811e+000  -7.8017234742e-001
       311  -1.6636476431e+000  -1.2318626213e+000
       312  -1.3198944628e+000  -1.6163191962e+000
       313  -9.1882599614e-001  -1.9474520745e+000
       314  -4.7675823461e-001  -2.1859724677e+000
       315   1.3235631684e-002  -2.2913761677e+000
       316   5.1811443683e-001  -2.2515800043e+000
       317   1.0115588292e+000  -2.1260349444e+000
       318   4.7114002102e-001   2.0685473639e+000
       319   9.5480783301e-001   2.0441164889e+000
       320   1.4263688332e+000   1.8987161585e+000
       321   1.8493066492e+000   1.6362508712e+000
       322   2.1876079188e+000   1.2796123727e+000
       323  -2.5624304347e-001  -9.9537746837e-001
       324   1.4179869593e+000   6.3932164063e-001
       325   1.3081244591e+000   9.3283416829e-001
       326  -6.6974618159e-001   2.7247373241e-001
       327  -1.5465660275e-001   9.3954884386e-001
       328  -7.4292735862e-001  -2.4906549741e-001
       329   1.7478188732e+000   5.3633119637e-002
       330   1.2139678686e+000  -9.6724608829e-001
       331   1.5199932735e+000  -9.0380553250e-001
       332   1.8923251532e+000  -5.0667256366e-001
       333   1.9465301584e+000  -1.9081191784e-001
       334  -6.2164503519e-001   7.9930662568e-001
       335  -4.0923759342e-001   1.0333099672e+000
       336  -6.4197597141e-001  -7.1796911614e-001
       337  -8.6108210786e-001  -5.3791136244e-001
       338   8.6788318419e-001   1.3260593286e+000
       339   5.2430212322e-001   1.3446943886e+000
       340   1.8251997209e-001   1.3051502142e+000
       341   7.7684940645e-001  -1.2531246844e+000
       342   1.1029953304e+000  -1.2998063593e+000
       343   4.7887546499e-001  -1.2585378594e+000
       344   1.7128882245e-001  -1.2739744688e+000
       345   1.4707456677e+000  -1.9070842200e+000
       346   2.4567470485e+000   9.5306096486e-001
       347   2.3404643059e+000  -1.6614691906e+000
       348   2.6018960137e+000  -1.2539083139e+000
       349   2.5198247710e+000   5.3887276851e-001
       350   2.5407386522e+000   5.0403067810e-002
       351  -4.1497143868e-003   1.9754929320e+000
       352  -4.4428214365e-001   1.7869235630e+000
       353  -8.2549940149e-001   1.5243151152e+000
       354  -1.1391872520e+000   1.1993686380e+000
       355  -1.3782289207e+000   8.2593446498e-001
       356  -1.5226504406e+000   4.0839409893e-001
       357  -1.5574008262e+000  -4.0534105836e-002
       358  -1.5358831656e+000  -4.7695889526e-001
       359  -1.4840954885e+000  -8.6600500337e-001
       360  -1.1673705331e+000  -1.1390179593e+000
       361  -8.5605522939e-001  -1.4898357050e+000
       362  -4.9202811616e-001  -1.7323506603e+000
       363  -1.5962694537e-001  -1.9322084613e+000
       364   2.2712220912e-001  -1.9015288941e+000
       365   6.6713311784e-001  -1.8089912043e+000
       366   7.0285281313e-001   1.6803912062e+000
       367   2.9958514112e-001   1.6594358384e+000
       368   1.1018823262e+000   1.6169210964e+000
       369   1.4802233237e+000   1.4653460408e+000
       370   1.8015846814e+000   1.1881626583e+000
       371   2.0578285660e+000   7.7443155972e-001
       372   1.8558715547e+000  -1.5811955796e+000
       373   2.1587019557e+000  -1.1522887906e+000
       374   1.0937435574e+000  -1.6966790104e+000
       375   2.5612879994e+000  -8.0888228156e-001
       376   2.4514634071e+000  -3.9424645025e-001
       377  -9.1217749114e-002   1.5577786539e+000
       378  -9.7140150459e-001   8.3890808067e-001
       379  -7.3802930226e-001   1.1301137336e+000
       380  -8.7394891910e-001  -8.7070510453e-001
       381  -1.1424607008e+000   5.1752614977e-001
       382  -1.2047552995e+000   1.4858350161e-001
       383  -1.1395079709e+000  -2.6111185372e-001
       384  -1.1742599963e+000  -6.8603986176e-001
       385   2.2185610465e+000   3.5017382377e-001
       386   1.1994860254e+000   1.2509029159e+000
       387  -7.8157277552e-001  -1.1627809223e+000
       388  -5.5726967924e-001  -9.7019574792e-001
       389  -4.4658794234e-001  -1.3160536024e+000
       390   3.3994383825e-001  -1.5565749534e+000
       391  -7.2465490528e-002  -1.5639041653e+000
       392  -8.7996181555e-001   2.6937910433e-002
       393  -1.3667101665e-001   1.2093139426e+000
       394  -1.1680780452e-001  -1.2333094669e+000
       395   2.1431339933e+000  -3.9142043659e-001
       396   2.0381571089e+000   9.6652202728e-002
       397   1.8495563742e+000  -8.4675803999e-001
       398  -8.0092614392e-001   5.4701389375e-001
       399   1.3980671991e+000  -1.1722880837e+000
       400   1.8825992409e+000   3.7539945883e-001
       401   1.7119915620e+000   5.9658531953e-001
       402   1.6432991983e+000   8.7526566215e-001
       403   2.1786854244e+000  -7.0036616521e-001
       404   6.1981637211e-001  -1.4827822367e+000
       405   1.4398562181e+000  -1.4822097130e+000
       406   8.5801413879e-001  -1.5116878328e+000
       407   1.7170212724e+000  -1.1913196944e+000
       408  -9.3945437435e-001   3.0306926135e-001
       409   2.2364871268e+000  -1.2828549158e-001
ENDOFSECTION
      ELEMENTS/CELLS 2.0.4
       1  3  3       36      37      43
       2  3  3       43      37      47
       3  3  3       47      37       2
       4  3  3       36      43      48
       5  3  3       36      48      35
       6  3  3       35      48      49
       7  3  3       35      49      34
       8  3  3       34      49      50
       9  3  3       34      50      33
      10  3  3       33      50      51
      11  3  3       33      51       1
      12  3  3       38      39      52
      13  3  3       38      52      53
      14  3  3       38      53       2
      15  3  3       52      39      54
      16  3  3       54      39      40
      17  3  3       54      40      55
      18  3  3       55      40      41
      19  3  3       55      41      42
      20  3  3       42      56      55
      21  3  3       56      42       1
      22  3  3        1      57      56
      23  3  3        7       8      58
      24  3  3       58       8      59
      25  3  3       59       8       9
      26  3  3        7      58      60
      27  3  3        7      60       6
      28  3  3       59       9      61
      29  3  3       61       9      10
      30  3  3       61      10      62
      31  3  3       62      10      11
      32  3  3       62      11      63
      33  3  3       63      11      12
      34  3  3       63      12      64
      35  3  3       64      12      13
      36  3  3       64      13      65
      37  3  3       65      13      14
      38  3  3       65      14      66
      39  3  3       66      14      15
      40  3  3       66      15      67
      41  3  3       67      15      16
      42  3  3       67      16      68
      43  3  3       68      16      17
      44  3  3       68      17      69
      45  3  3       69      17      18
      46  3  3       69      18      70
      47  3  3       70      18      19
      48  3  3       70      19      71
      49  3  3       71      19      20
      50  3  3       71      20      72
      51  3  3       72      20      21
      52  3  3       72      21      73
      53  3  3       73      21      22
      54  3  3       73      22      74
      55  3  3       74      22      23
      56  3  3       74      23      75
      57  3  3       75      23      24
      58  3  3       75      24      76
      59  3  3       76      24      25
      60  3  3       76      25      77
      61  3  3       77      25      26
      62  3  3       77      26      78
      63  3  3       78      26      27
      64  3  3       78      27      79
      65  3  3       79      27      28
      66  3  3       79      28      80
      67  3  3       80      28      29
      68  3  3       80      29      81
      69  3  3       81      29      30
      70  3  3        6      60      82
      71  3  3        6      82       5
      72  3  3       81      30      83
      73  3  3       83      30      31
      74  3  3        5      82      84
      75  3  3        5      84       4
      76  3  3       83      31      85
      77  3  3       85      31      32
      78  3  3        4      84      86
      79  3  3        4      86       3
      80  3  3        3      86      87
      81  3  3        3      87      32
      82  3  3       32      87      85
      83  3  3       59      61      88
      84  3  3       59      88      89
      85  3  3       59      89      58
      86  3  3       60      58      90
      87  3  3       90      58      89
      88  3  3       82      60      91
      89  3  3       91      60      90
      90  3  3       84      82      92
      91  3  3       92      82      91
      92  3  3       86      84      93
      93  3  3       93      84      92
      94  3  3       87      86      94
      95  3  3       94      86      93
      96  3  3       61      62      95
      97  3  3       61      95      88
      98  3  3       62      63      96
      99  3  3       62      96      95
     100  3  3       63      64      97
     101  3  3       63      97      96
     102  3  3       64      65      98
     103  3  3       64      98      97
     104  3  3       65      66      99
     105  3  3       65      99      98
     106  3  3       66      67     100
     107  3  3       66     100      99
     108  3  3       67      68     101
     109  3  3       67     101     100
     110  3  3       68      69     102
     111  3  3       68     102     101
     112  3  3       69      70     103
     113  3  3       69     103     102
     114  3  3       70      71     104
     115  3  3       70     104     103
     116  3  3       71      72     105
     117  3  3       71     105     104
     118  3  3       72      73     106
     119  3  3       72     106     105
     120  3  3       73      74     107
     121  3  3       73     107     106
     122  3  3       74      75     108
     123  3  3       74     108     107
     124  3  3       75      76     109
     125  3  3       75     109     108
     126  3  3       76      77     110
     127  3  3       76     110     109
     128  3  3       77      78     111
     129  3  3       77     111     110
     130  3  3       78      79     112
     131  3  3       78     112     111
     132  3  3       79      80     113
     133  3  3       79     113     112
     134  3  3       80      81     114
     135  3  3       80     114     113
     136  3  3       81      83     115
     137  3  3       81     115     114
     138  3  3       83      85     116
     139  3  3       83     116     115
     140  3  3       57       1     117
     141  3  3      117       1      51
     142  3  3       48      43     118
     143  3  3      118      43     119
     144  3  3      119      43      47
     145  3  3       49      48     120
     146  3  3      120      48     118
     147  3  3       50      49     121
     148  3  3      121      49     120
     149  3  3       51      50     122
     150  3  3      122      50     121
     151  3  3       53      52     123
     152  3  3      123      52     124
     153  3  3      124      52      54
     154  3  3       54      55     125
     155  3  3       54     125     124
     156  3  3       55      56     126
     157  3  3       55     126     125
     158  3  3       56      57     127
     159  3  3       56     127     126
     160  3  3        2      53     128
     161  3  3        2     128     129
     162  3  3        2     129      47
     163  3  3       87      94     130
     164  3  3       87     130      85
     165  3  3      116      85     130
     166  3  3       88      95     131
     167  3  3       88     131     132
     168  3  3       88     132      89
     169  3  3       90      89     133
     170  3  3      133      89     132
     171  3  3       95      96     134
     172  3  3       95     134     131
     173  3  3       96      97     135
     174  3  3       96     135     134
     175  3  3       97      98     136
     176  3  3       97     136     135
     177  3  3       98      99     137
     178  3  3       98     137     136
     179  3  3       99     100     138
     180  3  3       99     138     137
     181  3  3      100     101     139
     182  3  3      100     139     138
     183  3  3      101     102     140
     184  3  3      101     140     139
     185  3  3      102     103     141
     186  3  3      102     141     140
     187  3  3      103     104     142
     188  3  3      103     142     141
     189  3  3      104     105     142
     190  3  3       91      90     143
     191  3  3      143      90     133
     192  3  3       92      91     144
     193  3  3      144      91     143
     194  3  3       93      92     145
     195  3  3      145      92     144
     196  3  3       94      93     146
     197  3  3      146      93     145
     198  3  3      105     106     147
     199  3  3      105     147     142
     200  3  3      106     107     148
     201  3  3      106     148     147
     202  3  3      107     108     149
     203  3  3      107     149     148
     204  3  3      108     109     150
     205  3  3      108     150     149
     206  3  3      109     110     151
     207  3  3      109     151     150
     208  3  3      110     111     152
     209  3  3      110     152     151
     210  3  3      111     112     153
     211  3  3      111     153     152
     212  3  3      112     113     154
     213  3  3      112     154     153
     214  3  3      113     114     155
     215  3  3      113     155     154
     216  3  3      114     115     155
     217  3  3      115     116     156
     218  3  3      115     156     155
     219  3  3       94     146     157
     220  3  3       94     157     130
     221  3  3      116     130     158
     222  3  3      158     130     157
     223  3  3      156     116     158
     224  3  3      149     150     159
     225  3  3      159     150     160
     226  3  3      160     150     151
     227  3  3      148     149     161
     228  3  3      161     149     159
     229  3  3      147     148     162
     230  3  3      162     148     161
     231  3  3      151     152     163
     232  3  3      151     163     160
     233  3  3      152     153     164
     234  3  3      152     164     163
     235  3  3      153     154     165
     236  3  3      153     165     164
     237  3  3      154     155     166
     238  3  3      154     166     165
     239  3  3      155     156     167
     240  3  3      155     167     166
     241  3  3      142     147     168
     242  3  3      168     147     162
     243  3  3      141     142     169
     244  3  3      169     142     168
     245  3  3      140     141     170
     246  3  3      170     141     169
     247  3  3      139     140     171
     248  3  3      171     140     170
     249  3  3      138     139     172
     250  3  3      172     139     171
     251  3  3      137     138     173
     252  3  3      173     138     172
     253  3  3      136     137     174
     254  3  3      174     137     173
     255  3  3      135     136     175
     256  3  3      175     136     174
     257  3  3      134     135     176
     258  3  3      176     135     175
     259  3  3      131     134     177
     260  3  3      177     134     176
     261  3  3      132     131     178
     262  3  3      178     131     177
     263  3  3      133     132     179
     264  3  3      179     132     178
     265  3  3      143     133     180
     266  3  3      180     133     179
     267  3  3      144     143     181
     268  3  3      181     143     180
     269  3  3      145     144     182
     270  3  3      182     144     181
     271  3  3      146     145     183
     272  3  3      183     145     182
     273  3  3       57     117     184
     274  3  3       57     184     127
     275  3  3      119      47     185
     276  3  3      185      47     129
     277  3  3       51     122     186
     278  3  3       51     186     117
     279  3  3       53     123     187
     280  3  3       53     187     188
     281  3  3       53     188     128
     282  3  3      129     128     189
     283  3  3      189     128     188
     284  3  3      118     119     190
     285  3  3      118     190     191
     286  3  3      118     191     120
     287  3  3      121     120     192
     288  3  3      192     120     191
     289  3  3      122     121     193
     290  3  3      193     121     192
     291  3  3      123     124     194
     292  3  3      123     194     195
     293  3  3      123     195     187
     294  3  3      124     125     196
     295  3  3      124     196     194
     296  3  3      125     126     197
     297  3  3      125     197     196
     298  3  3      126     127     198
     299  3  3      126     198     197
     300  3  3      157     146     199
     301  3  3      199     146     183
     302  3  3      158     157     200
     303  3  3      200     157     199
     304  3  3      156     158     201
     305  3  3      201     158     200
     306  3  3      167     156     201
     307  3  3      177     176     202
     308  3  3      177     202     203
     309  3  3      177     203     178
     310  3  3      176     175     204
     311  3  3      176     204     202
     312  3  3      175     174     205
     313  3  3      175     205     204
     314  3  3      174     173     206
     315  3  3      174     206     205
     316  3  3      173     172     207
     317  3  3      173     207     206
     318  3  3      172     171     208
     319  3  3      172     208     207
     320  3  3      171     170     209
     321  3  3      171     209     208
     322  3  3      170     169     210
     323  3  3      170     210     209
     324  3  3      169     168     211
     325  3  3      169     211     210
     326  3  3      168     162     212
     327  3  3      168     212     211
     328  3  3      162     161     213
     329  3  3      162     213     212
     330  3  3      161     159     214
     331  3  3      161     214     213
     332  3  3      159     160     215
     333  3  3      159     215     214
     334  3  3      160     163     216
     335  3  3      160     216     215
     336  3  3      163     164     217
     337  3  3      163     217     216
     338  3  3      164     165     218
     339  3  3      164     218     217
     340  3  3      165     166     219
     341  3  3      165     219     218
     342  3  3      166     167     220
     343  3  3      166     220     219
     344  3  3      179     178     221
     345  3  3      221     178     203
     346  3  3      180     179     222
     347  3  3      222     179     221
     348  3  3      181     180     223
     349  3  3      223     180     222
     350  3  3      182     181     224
     351  3  3      224     181     223
     352  3  3      183     182     225
     353  3  3      225     182     224
     354  3  3      167     201     226
     355  3  3      167     226     220
     356  3  3      183     225     227
     357  3  3      183     227     199
     358  3  3      200     199     228
     359  3  3      228     199     227
     360  3  3      201     200     229
     361  3  3      229     200     228
     362  3  3      213     214     230
     363  3  3      230     214     231
     364  3  3      231     214     215
     365  3  3      212     213     232
     366  3  3      232     213     230
     367  3  3      211     212     233
     368  3  3      233     212     232
     369  3  3      210     211     234
     370  3  3      234     211     233
     371  3  3      209     210     235
     372  3  3      235     210     234
     373  3  3      208     209     236
     374  3  3      236     209     235
     375  3  3      207     208     237
     376  3  3      237     208     236
     377  3  3      206     207     238
     378  3  3      238     207     237
     379  3  3      215     216     239
     380  3  3      215     239     231
     381  3  3      216     217     240
     382  3  3      216     240     239
     383  3  3      217     218     241
     384  3  3      217     241     240
     385  3  3      218     219     242
     386  3  3      218     242     241
     387  3  3      219     220     243
     388  3  3      219     243     242
     389  3  3      205     206     244
     390  3  3      244     206     238
     391  3  3      204     205     245
     392  3  3      245     205     244
     393  3  3      202     204     246
     394  3  3      246     204     245
     395  3  3      203     202     247
     396  3  3      247     202     246
     397  3  3      221     203     248
     398  3  3      248     203     247
     399  3  3      222     221     249
     400  3  3      249     221     248
     401  3  3      223     222     250
     402  3  3      250     222     249
     403  3  3      224     223     251
     404  3  3      251     223     250
     405  3  3      225     224     252
     406  3  3      252     224     251
     407  3  3      129     189     253
     408  3  3      129     253     185
     409  3  3      117     186     254
     410  3  3      117     254     184
     411  3  3      119     185     255
     412  3  3      119     255     190
     413  3  3      127     184     256
     414  3  3      127     256     257
     415  3  3      127     257     198
     416  3  3      188     187     258
     417  3  3      258     187     195
     418  3  3      189     188     259
     419  3  3      259     188     260
     420  3  3      260     188     258
     421  3  3      195     194     261
     422  3  3      261     194     262
     423  3  3      262     194     196
     424  3  3      196     197     263
     425  3  3      196     263     262
     426  3  3      197     198     264
     427  3  3      197     264     263
     428  3  3      122     193     265
     429  3  3      122     265     266
     430  3  3      122     266     186
     431  3  3      191     190     267
     432  3  3      267     190     268
     433  3  3      268     190     255
     434  3  3      192     191     269
     435  3  3      269     191     267
     436  3  3      193     192     270
     437  3  3      270     192     269
     438  3  3      226     201     229
     439  3  3      220     226     271
     440  3  3      220     271     243
     441  3  3      227     225     272
     442  3  3      272     225     252
     443  3  3      228     227     273
     444  3  3      273     227     272
     445  3  3      229     228     274
     446  3  3      274     228     273
     447  3  3      247     246     275
     448  3  3      275     246     245
     449  3  3      245     244     276
     450  3  3      245     276     275
     451  3  3      244     238     277
     452  3  3      244     277     276
     453  3  3      238     237     278
     454  3  3      238     278     277
     455  3  3      237     236     279
     456  3  3      237     279     278
     457  3  3      236     235     280
     458  3  3      236     280     279
     459  3  3      235     234     281
     460  3  3      235     281     280
     461  3  3      234     233     282
     462  3  3      234     282     281
     463  3  3      233     232     283
     464  3  3      233     283     282
     465  3  3      232     230     284
     466  3  3      232     284     283
     467  3  3      230     231     285
     468  3  3      230     285     284
     469  3  3      231     239     286
     470  3  3      231     286     285
     471  3  3      239     240     287
     472  3  3      239     287     286
     473  3  3      240     241     288
     474  3  3      240     288     287
     475  3  3      241     242     289
     476  3  3      241     289     288
     477  3  3      242     243     290
     478  3  3      242     290     289
     479  3  3      248     247     291
     480  3  3      291     247     292
     481  3  3      292     247     275
     482  3  3      249     248     293
     483  3  3      293     248     291
     484  3  3      250     249     294
     485  3  3      294     249     293
     486  3  3      251     250     295
     487  3  3      295     250     294
     488  3  3      252     251     296
     489  3  3      296     251     295
     490  3  3      226     229     297
     491  3  3      226     297     271
     492  3  3      229     274     298
     493  3  3      229     298     297
     494  3  3      290     243     299
     495  3  3      299     243     271
     496  3  3      272     252     300
     497  3  3      300     252     296
     498  3  3      273     272     301
     499  3  3      301     272     300
     500  3  3      274     273     302
     501  3  3      302     273     301
     502  3  3      275     276     303
     503  3  3      275     303     292
     504  3  3      276     277     304
     505  3  3      276     304     303
     506  3  3      277     278     305
     507  3  3      277     305     304
     508  3  3      278     279     306
     509  3  3      278     306     305
     510  3  3      279     280     307
     511  3  3      279     307     306
     512  3  3      280     281     308
     513  3  3      280     308     307
     514  3  3      281     282     309
     515  3  3      281     309     308
     516  3  3      282     283     310
     517  3  3      282     310     309
     518  3  3      283     284     311
     519  3  3      283     311     310
     520  3  3      284     285     312
     521  3  3      284     312     311
     522  3  3      285     286     313
     523  3  3      285     313     312
     524  3  3      286     287     314
     525  3  3      286     314     313
     526  3  3      287     288     315
     527  3  3      287     315     314
     528  3  3      288     289     316
     529  3  3      288     316     315
     530  3  3      289     290     317
     531  3  3      289     317     316
     532  3  3      291     292     318
     533  3  3      291     318     319
     534  3  3      291     319     293
     535  3  3      294     293     320
     536  3  3      320     293     319
     537  3  3      295     294     321
     538  3  3      321     294     320
     539  3  3      296     295     322
     540  3  3      322     295     321
     541  3  3      264     198     323
     542  3  3      323     198     257
     543  3  3      255     185     324
     544  3  3      324     185     253
     545  3  3      268     255     325
     546  3  3      325     255     324
     547  3  3      254     186     326
     548  3  3      326     186     266
     549  3  3      193     270     327
     550  3  3      193     327     265
     551  3  3      256     184     328
     552  3  3      328     184     254
     553  3  3      189     259     329
     554  3  3      189     329     253
     555  3  3      258     195     330
     556  3  3      330     195     261
     557  3  3      260     258     331
     558  3  3      331     258     330
     559  3  3      259     260     332
     560  3  3      259     332     333
     561  3  3      259     333     329
     562  3  3      266     265     334
     563  3  3      334     265     335
     564  3  3      335     265     327
     565  3  3      257     256     336
     566  3  3      336     256     337
     567  3  3      337     256     328
     568  3  3      267     268     338
     569  3  3      267     338     339
     570  3  3      267     339     269
     571  3  3      270     269     340
     572  3  3      340     269     339
     573  3  3      261     262     341
     574  3  3      261     341     342
     575  3  3      261     342     330
     576  3  3      262     263     343
     577  3  3      262     343     341
     578  3  3      263     264     344
     579  3  3      263     344     343
     580  3  3      298     274     302
     581  3  3      317     290     345
     582  3  3      345     290     299
     583  3  3      300     296     346
     584  3  3      346     296     322
     585  3  3      299     271     347
     586  3  3      347     271     297
     587  3  3      297     298     348
     588  3  3      297     348     347
     589  3  3      301     300     349
     590  3  3      349     300     346
     591  3  3      302     301     350
     592  3  3      350     301     349
     593  3  3      292     303     351
     594  3  3      292     351     318
     595  3  3      303     304     352
     596  3  3      303     352     351
     597  3  3      304     305     353
     598  3  3      304     353     352
     599  3  3      305     306     354
     600  3  3      305     354     353
     601  3  3      306     307     355
     602  3  3      306     355     354
     603  3  3      307     308     356
     604  3  3      307     356     355
     605  3  3      308     309     357
     606  3  3      308     357     356
     607  3  3      309     310     358
     608  3  3      309     358     357
     609  3  3      310     311     359
     610  3  3      310     359     358
     611  3  3      311     312     360
     612  3  3      311     360     359
     613  3  3      312     313     361
     614  3  3      312     361     360
     615  3  3      313     314     362
     616  3  3      313     362     361
     617  3  3      314     315     363
     618  3  3      314     363     362
     619  3  3      315     316     364
     620  3  3      315     364     363
     621  3  3      316     317     365
     622  3  3      316     365     364
     623  3  3      319     318     366
     624  3  3      366     318     367
     625  3  3      367     318     351
     626  3  3      320     319     368
     627  3  3      368     319     366
     628  3  3      321     320     369
     629  3  3      369     320     368
     630  3  3      322     321     370
     631  3  3      370     321     369
     632  3  3      346     322     371
     633  3  3      371     322     370
     634  3  3      349     346     371
     635  3  3      299     347     372
     636  3  3      299     372     345
     637  3  3      347     348     373
     638  3  3      347     373     372
     639  3  3      365     317     374
     640  3  3      374     317     345
     641  3  3      298     302     375
     642  3  3      298     375     348
     643  3  3      302     350     376
     644  3  3      302     376     375
     645  3  3      351     352     377
     646  3  3      351     377     367
     647  3  3      352     353      44
     648  3  3      352      44     377
     649  3  3      353     354     379
     650  3  3      353     379      44
     651  3  3      354     355     378
     652  3  3      354     378     379
     653  3  3      355     356     381
     654  3  3      355     381     378
     655  3  3      356     357     382
     656  3  3      356     382     381
     657  3  3      357     358     383
     658  3  3      357     383     382
     659  3  3      358     359     384
     660  3  3      358     384     383
     661  3  3      359     360     384
     662  3  3      350     349     385
     663  3  3      385     349     371
     664  3  3      366     367     339
     665  3  3      366     339     338
     666  3  3      366     338     368
     667  3  3      369     368     386
     668  3  3      386     368     338
     669  3  3      370     369      45
     670  3  3       45     369     386
     671  3  3      360     361     387
     672  3  3      360     387     380
     673  3  3      360     380     384
     674  3  3      361     362     389
     675  3  3      361     389     387
     676  3  3      362     363     391
     677  3  3      362     391     389
     678  3  3      363     364     391
     679  3  3      364     365     390
     680  3  3      364     390     391
     681  3  3      338     268     386
     682  3  3      268     325     386
     683  3  3      340     339     367
     684  3  3      327     270     393
     685  3  3      393     270     340
     686  3  3      344     264     394
     687  3  3      394     264     323
     688  3  3      335     327     393
     689  3  3      323     257     388
     690  3  3      388     257     336
     691  3  3      254     326     392
     692  3  3      254     392     328
     693  3  3      337     328     383
     694  3  3      383     328     392
     695  3  3      332     260     397
     696  3  3      397     260     331
     697  3  3      266     334     398
     698  3  3      266     398     326
     699  3  3      331     330     399
     700  3  3      399     330     342
     701  3  3      253     329     400
     702  3  3      253     400     401
     703  3  3      253     401     324
     704  3  3      325     324     402
     705  3  3      402     324     401
     706  3  3      329     333     396
     707  3  3      329     396     400
     708  3  3      336     337     380
     709  3  3      380     337     384
     710  3  3      384     337     383
     711  3  3      334     335     379
     712  3  3      334     379     378
     713  3  3      334     378     398
     714  3  3      333     332     395
     715  3  3      395     332     403
     716  3  3      403     332     397
     717  3  3      342     341     406
     718  3  3      406     341     404
     719  3  3      404     341     343
     720  3  3      343     344     390
     721  3  3      343     390     404
     722  3  3      391     390     344
     723  3  3       45     386     325
     724  3  3      378     381     398
     725  3  3      382     383     392
     726  3  3      367     377     340
     727  3  3       44     379     335
     728  3  3      390     365     404
     729  3  3      373     348     375
     730  3  3      365     374     406
     731  3  3      365     406     404
     732  3  3      381     382     408
     733  3  3      408     382     392
     734  3  3      377      44     393
     735  3  3      393      44     335
     736  3  3      389     391     394
     737  3  3      394     391     344
     738  3  3      380     387     388
     739  3  3      380     388     336
     740  3  3      387     389     388
     741  3  3      370      45     402
     742  3  3      370     402     371
     743  3  3      374     345     405
     744  3  3      405     345     372
     745  3  3      350     385      46
     746  3  3      350      46     409
     747  3  3      350     409     376
     748  3  3      385     371     400
     749  3  3      400     371     401
     750  3  3      401     371     402
     751  3  3      375     376     403
     752  3  3      375     403     373
     753  3  3      372     373     407
     754  3  3      372     407     405
     755  3  3       45     325     402
     756  3  3      403     376     395
     757  3  3      376     409     395
     758  3  3      385     400     396
     759  3  3      340     377     393
     760  3  3      388     389     323
     761  3  3       46     385     396
     762  3  3      409      46     396
     763  3  3      389     394     323
     764  3  3      408     392     326
     765  3  3      373     403     397
     766  3  3      407     373     397
     767  3  3      381     408     398
     768  3  3      406     374     342
     769  3  3      374     405     342
     770  3  3      405     407     399
     771  3  3      405     399     342
     772  3  3      396     333     409
     773  3  3      333     395     409
     774  3  3      397     331     407
     775  3  3      331     399     407
     776  3  3      326     398     408
ENDOFSECTION
       ELEMENT GROUP 2.0.4
GROUP:          1 ELEMENTS:        776 MATERIAL:          2 NFLAGS:          1
                           fluid
       0
       1       2       3       4       5       6       7       8       9      10
      11      12      13      14      15      16      17      18      19      20
      21      22      23      24      25      26      27      28      29      30
      31      32      33      34      35      36      37      38      39      40
      41      42      43      44      45      46      47      48      49      50
      51      52      53      54      55      56      57      58      59      60
      61      62      63      64      65      66      67      68      69      70
      71      72      73      74      75      76      77      78      79      80
      81      82      83      84      85      86      87      88      89      90
      91      92      93      94      95      96      97      98      99     100
     101     102     103     104     105     106     107     108     109     110
     111     112     113     114     115     116     117     118     119     120
     121     122     123     124     125     126     127     128     129     130
     131     132     133     134     135     136     137     138     139     140
     141     142     143     144     145     146     147     148     149     150
     151     152     153     154     155     156     157     158     159     160
     161     162     163     164     165     166     167     168     169     170
     171     172     173     174     175     176     177     178     179     180
     181     182     183     184     185     186     187     188     189     190
     191     192     193     194     195     196     197     198     199     200
     201     202     203     204     205     206     207     208     209     210
     211     212     213     214     215     216     217     218     219     220
     221     222     223     224     225     226     227     228     229     230
     231     232     233     234     235     236     237     238     239     240
     241     242     243     244     245     246     247     248     249     250
     251     252     253     254     255     256     257     258     259     260
     261     262     263     264     265     266     267     268     269     270
     271     272     273     274     275     276     277     278     279     280
     281     282     283     284     285     286     287     288     289     290
     291     292     293     294     295     296     297     298     299     300
     301     302     303     304     305     306     307     308     309     310
     311     312     313     314     315     316     317     318     319     320
     321     322     323     324     325     326     327     328     329     330
     331     332     333     334     335     336     337     338     339     340
     341     342     343     344     345     346     347     348     349     350
     351     352     353     354     355     356     357     358     359     360
     361     362     363     364     365     366     367     368     369     370
     371     372     373     374     375     376     377     378     379     380
     381     382     383     384     385     386     387     388     389     390
     391     392     393     394     395     396     397     398     399     400
     401     402     403     404     405     406     407     408     409     410
     411     412     413     414     415     416     417     418     419     420
     421     422     423     424     425     426     427     428     429     430
     431     432     433     434     435     436     437     438     439     440
     441     442     443     444     445     446     447     448     449     450
     451     452     453     454     455     456     457     458     459     460
     461     462     463     464     465     466     467     468     469     470
     471     472     473     474     475     476     477     478     479     480
     481     482     483     484     485     486     487     488     489     490
     491     492     493     494     495     496     497     498     499     500
     501     502     503     504     505     506     507     508     509     510
     511     512     513     514     515     516     517     518     519     520
     521     522     523     524     525     526     527     528     529     530
     531     532     533     534     535     536     537     538     539     540
     541     542     543     544     545     546     547     548     549     550
     551     552     553     554     555     556     557     558     559     560
     561     562     563     564     565     566     567     568     569     570
     571     572     573     574     575     576     577     578     579     580
     581     582     583     584     585     586     587     588     589     590
     591     592     593     594     595     596     597     598     599     600
     601     602     603     604     605     606     607     608     609     610
     611     612     613     614     615     616     617     618     619     620
     621     622     623     624     625     626     627     628     629     630
     631     632     633     634     635     636     637     638     639     640
     641     642     643     644     645     646     647     648     649     650
     651     652     653     654     655     656     657     658     659     660
     661     662     663     664     665     666     667     668     669     670
     671     672     673     674     675     676     677     678     679     680
     681     682     683     684     685     686     687     688     689     690
     691     692     693     694     695     696     697     698     699     700
     701     702     703     704     705     706     707     708     709     710
     711     712     713     714     715     716     717     718     719     720
     721     722     723     724     725     726     727     728     729     730
     731     732     733     734     735     736     737     738     739     740
     741     742     743     744     745     746     747     748     749     750
     751     752     753     754     755     756     757     758     759     760
     761     762     763     764     765     766     767     768     769     770
     771     772     773     774     775     776
ENDOFSECTION
 BOUNDARY CONDITIONS 2.0.4
                          node.4       0      30       0      24
         3
         4
         5
         6
         7
         8
         9
        10
        11
        12
        13
        14
        15
        16
        17
        18
        19
        20
        21
        22
        23
        24
        25
        26
        27
        28
        29
        30
        31
        32
ENDOFSECTION
 BOUNDARY CONDITIONS 2.0.4
                          node.5       0       7       0      24
         2
         1
        33
        34
        35
        36
        37
ENDOFSECTION
 BOUNDARY CONDITIONS 2.0.4
                          node.6       0       7       0      24
         1
         2
        38
        39
        40
        41
        42
ENDOFSECTION
