        CONTROL INFO 2.0.4
** GAMBIT NEUTRAL FILE
UNI
PROGRAM:                Gambit     VERSION:  2.0.4
 May 2007     
     NUMNP     NELEM     NGRPS    NBSETS     NDFCD     NDFVL
       258       464         1         1         2         2
ENDOFSECTION
   NODAL COORDINATES 2.0.4
         1   5.0000000000e+000   0.0000000000e+000
         2   4.9605909430e+000   6.2652812910e-001
         3   4.8428215725e+000   1.2438163918e+000
         4   4.6490182031e+000   1.8402798013e+000
         5   4.3813180551e+000   2.4091600404e+000
         6   4.0453510016e+000   2.9385600681e+000
         7   3.6446352480e+000   3.4229568956e+000
         8   3.1873449818e+000   3.8523800393e+000
         9   2.6790943104e+000   4.2216647991e+000
        10   2.1287453262e+000   4.5242063764e+000
        11   1.5452998161e+000   4.7552127690e+000
        12   9.3648305678e-001   4.9115170247e+000
        13   3.1436960301e-001   4.9901073889e+000
        14  -3.1436960301e-001   4.9901073889e+000
        15  -9.3648305678e-001   4.9115170247e+000
        16  -1.5452998161e+000   4.7552127690e+000
        17  -2.1287453262e+000   4.5242063764e+000
        18  -2.6790943104e+000   4.2216647991e+000
        19  -3.1873449818e+000   3.8523800393e+000
        20  -3.6446352480e+000   3.4229568956e+000
        21  -4.0453510016e+000   2.9385600681e+000
        22  -4.3813180551e+000   2.4091600404e+000
        23  -4.6490182031e+000   1.8402798013e+000
        24  -4.8428215725e+000   1.2438163918e+000
        25  -4.9605909430e+000   6.2652812910e-001
        26  -5.0000000000e+000  -6.0490349708e-015
        27  -4.9605909430e+000  -6.2652812910e-001
        28  -4.8428215725e+000  -1.2438163918e+000
        29  -4.6490182031e+000  -1.8402798013e+000
        30  -4.3813180551e+000  -2.4091600404e+000
        31  -4.0453510016e+000  -2.9385600681e+000
        32  -3.6446352480e+000  -3.4229568956e+000
        33  -3.1873449818e+000  -3.8523800393e+000
        34  -2.6790943104e+000  -4.2216647991e+000
        35  -2.1287453262e+000  -4.5242063764e+000
        36  -1.5452998161e+000  -4.7552127690e+000
        37  -9.3648305678e-001  -4.9115170247e+000
        38  -3.1436960301e-001  -4.9901073889e+000
        39   3.1436960301e-001  -4.9901073889e+000
        40   9.3648305678e-001  -4.9115170247e+000
        41   1.5452998161e+000  -4.7552127690e+000
        42   2.1287453262e+000  -4.5242063764e+000
        43   2.6790943104e+000  -4.2216647991e+000
        44   3.1873449818e+000  -3.8523800393e+000
        45   3.6446352480e+000  -3.4229568956e+000
        46   4.0453510016e+000  -2.9385600681e+000
        47   4.3813180551e+000  -2.4091600404e+000
        48   4.6490182031e+000  -1.8402798013e+000
        49   4.8428215725e+000  -1.2438163918e+000
        50   4.9605909430e+000  -6.2652812910e-001
        51   4.5076082839e+000  -3.5623756996e-001
        52  -9.8422515975e-002  -1.3030680535e-002
        53   4.4867706229e+000   2.0909173220e-001
        54   4.3645542338e+000   7.6695785382e-001
        55   4.1916755461e+000   1.3307164573e+000
        56   3.9654483437e+000   1.8870267021e+000
        57   3.6834274952e+000   2.4193207736e+000
        58   3.3813796233e+000   2.9151345905e+000
        59   3.1231558077e+000   3.3506185881e+000
        60   2.6603688821e+000   3.5844128401e+000
        61   2.1339287492e+000   3.8567059188e+000
        62   1.5785801632e+000   4.1143406664e+000
        63   1.0333618681e+000   4.3412140259e+000
        64   5.6339240321e-001   4.5457449142e+000
        65   5.0992301187e-002   4.4676202356e+000
        66  -5.3571232425e-001   4.3919032173e+000
        67  -1.1355153580e+000   4.2917486359e+000
        68  -1.6614943194e+000   4.2242204603e+000
        69  -2.0826786221e+000   3.9085015856e+000
        70  -2.5883589101e+000   3.5693669552e+000
        71  -3.0761958635e+000   3.2063348474e+000
        72  -3.5096127677e+000   2.9047591912e+000
        73  -3.7343225264e+000   2.4319969766e+000
        74  -4.0007114231e+000   1.8879449347e+000
        75  -4.2202350488e+000   1.3214855507e+000
        76  -4.4423043434e+000   8.4418026949e-001
        77  -4.4059569160e+000   3.1582313527e-001
        78  -4.4049275189e+000  -2.9251731238e-001
        79  -4.3604628331e+000  -8.9597391799e-001
        80  -4.3313588094e+000  -1.4170011084e+000
        81  -4.0465167023e+000  -1.8602019389e+000
        82  -3.7338989930e+000  -2.3782073527e+000
        83  -3.3903824990e+000  -2.8746964493e+000
        84  -3.1116060794e+000  -3.3172612495e+000
        85  -2.6510732668e+000  -3.5665580366e+000
        86  -2.1284019331e+000  -3.8666552862e+000
        87  -1.5786425212e+000  -4.1232136964e+000
        88  -1.0364232815e+000  -4.3469852666e+000
        89  -5.6582673840e-001  -4.5476707163e+000
        90  -5.3843478083e-002  -4.4632785576e+000
        91   5.3491765766e-001  -4.3719016634e+000
        92   1.1379930357e+000  -4.2612751449e+000
        93   1.6666633116e+000  -4.1991910336e+000
        94   2.0958535351e+000  -3.8825337821e+000
        95   2.6083396804e+000  -3.5422688527e+000
        96   3.0917013291e+000  -3.1735032031e+000
        97   3.5182662263e+000  -2.8759256918e+000
        98   3.7476747484e+000  -2.3967678370e+000
        99   4.0274747994e+000  -1.8592574529e+000
       100   4.2731390991e+000  -1.3132857003e+000
       101   4.5064868736e+000  -8.5479618656e-001
       102   3.5518231262e+000   1.3821346320e+000
       103   3.7508411901e+000   8.3437609381e-001
       104   3.9318922854e+000   3.0301173241e-001
       105   4.0952205940e+000  -1.6381063601e-001
       106   3.3044317035e+000   1.9230388395e+000
       107   2.9983532143e+000   2.4477819329e+000
       108   2.7499804032e+000   2.9826742541e+000
       109   2.1743580443e+000   3.1986412420e+000
       110   1.6018451984e+000   3.4775369538e+000
       111   1.0153982019e+000   3.7295593571e+000
       112   4.8422002508e-001   4.0278451644e+000
       113  -1.1632474494e-001   3.8776504929e+000
       114  -7.5134703051e-001   3.8078779765e+000
       115  -1.4246451324e+000   3.6796415050e+000
       116  -1.9844177302e+000   3.2889134807e+000
       117  -2.5169529331e+000   2.9285348089e+000
       118  -3.0715503980e+000   2.5425580385e+000
       119  -3.3870364809e+000   1.9613009371e+000
       120  -3.6012432453e+000   1.3754890251e+000
       121  -3.8311350979e+000   7.2588642488e-001
       122  -3.8365771740e+000   3.1231060679e-002
       123  -3.8482310950e+000  -5.9543538846e-001
       124  -3.7896442996e+000  -1.2531051114e+000
       125  -3.4433858687e+000  -1.8241376835e+000
       126  -3.0914848139e+000  -2.3481686087e+000
       127  -2.7128675655e+000  -2.8951599083e+000
       128  -2.1457965183e+000  -3.2355720229e+000
       129  -1.5947721429e+000  -3.4970327153e+000
       130  -1.0241414348e+000  -3.7441652205e+000
       131  -4.9404231082e-001  -4.0341112811e+000
       132   1.0220523609e-001  -3.8632474109e+000
       133   7.4568601631e-001  -3.7458912722e+000
       134   1.4401005315e+000  -3.6176411728e+000
       135   2.0320408729e+000  -3.2428652474e+000
       136   2.5557780576e+000  -2.8679937336e+000
       137   3.0920207245e+000  -2.4693592242e+000
       138   3.4191091882e+000  -1.8791499191e+000
       139   3.6805589668e+000  -1.3102930242e+000
       140   3.9817714766e+000  -7.2321124410e-001
       141   2.9444250652e+000   1.4268584270e+000
       142   3.1334285117e+000   8.7645831493e-001
       143   3.3364692872e+000   3.2161115158e-001
       144   3.5928028206e+000  -2.1665735812e-001
       145   2.6640241547e+000   1.9514018425e+000
       146   2.2667221473e+000   2.4962829543e+000
       147   1.6572787822e+000   2.8444093417e+000
       148   1.0600078218e+000   3.1167045951e+000
       149   3.8169213724e-001   3.3497449512e+000
       150  -3.4872028223e-001   3.2935685918e+000
       151  -9.3393905009e-001   3.2928734065e+000
       152  -1.3940193873e+000   2.9915403930e+000
       153  -1.9262469287e+000   2.6491485250e+000
       154  -2.4450925048e+000   2.3206690312e+000
       155  -2.8670642848e+000   2.0154752787e+000
       156  -2.9951191444e+000   1.5052854546e+000
       157  -3.1471803272e+000   9.1877221821e-001
       158  -3.2490898929e+000   3.0045656959e-001
       159  -3.2919370249e+000  -3.2333735401e-001
       160  -3.3671672200e+000  -8.5016637338e-001
       161  -3.1465446909e+000  -1.3064533016e+000
       162  -2.8342079986e+000  -1.8079092708e+000
       163  -2.4587112989e+000  -2.2731871948e+000
       164  -2.1416505374e+000  -2.6874203505e+000
       165  -1.6328590448e+000  -2.8689939559e+000
       166  -1.0705464529e+000  -3.1360249162e+000
       167  -4.1429654876e-001  -3.3711575250e+000
       168   2.8699507362e-001  -3.2541984430e+000
       169   9.2828329603e-001  -3.1261832725e+000
       170   1.5027407753e+000  -2.9231724312e+000
       171   2.0099931132e+000  -2.5899594317e+000
       172   2.4732776059e+000  -2.2019896761e+000
       173   2.8847551076e+000  -1.8763930580e+000
       174   3.0611053556e+000  -1.3453021476e+000
       175   3.3269852092e+000  -7.7237294865e-001
       176   1.0669241799e+000  -2.4951901502e+000
       177   1.5378582232e+000  -2.3414260745e+000
       178   1.9003554013e+000  -1.9393662917e+000
       179   2.4041841124e+000  -1.4809740861e+000
       180   5.0112844467e-001  -2.6560993463e+000
       181  -1.0533357354e-001  -2.7377577499e+000
       182  -6.4547419913e-001  -2.7896177000e+000
       183  -1.1372711896e+000  -2.5001945635e+000
       184  -1.7637976736e+000  -2.1924960423e+000
       185  -2.2306806136e+000  -1.7055698423e+000
       186  -2.6258657125e+000  -1.3259259916e+000
       187  -2.7754048911e+000  -7.6887205155e-001
       188   2.6845632687e+000  -8.1557413321e-001
       189  -2.7160104008e+000  -1.0521477280e-001
       190  -2.6341600146e+000   5.2147332268e-001
       191  -2.5185173468e+000   1.1245601819e+000
       192  -2.4258863693e+000   1.7174707723e+000
       193  -1.8911032826e+000   2.0123592455e+000
       194  -1.3413072782e+000   2.3461620947e+000
       195  -7.3965116528e-001   2.7114510685e+000
       196  -2.4339042979e-002   2.7590029297e+000
       197   6.1291676559e-001   2.6639896732e+000
       198   1.1640196194e+000   2.5628156932e+000
       199   1.5948345570e+000   2.2136680855e+000
       200   2.0553915981e+000   1.8283040459e+000
       201   2.4268206513e+000   1.4681445444e+000
       202   2.5297476469e+000   9.5557440989e-001
       203   2.6943981185e+000   3.5995015865e-001
       204   2.9628158120e+000  -2.2472697941e-001
       205   2.1372430886e+000  -8.8578333430e-001
       206   1.7239300043e+000  -1.3128516569e+000
       207   1.2207792557e+000  -1.8103601319e+000
       208   6.9787964388e-001  -2.1135032499e+000
       209   1.5101169915e-001  -2.1428247499e+000
       210  -5.2562212388e-001  -2.1948737408e+000
       211  -1.1482941656e+000  -1.8875900792e+000
       212  -1.6518595940e+000  -1.4840617145e+000
       213  -2.1565516751e+000  -1.0800998863e+000
       214  -2.1842991786e+000  -4.7705377969e-001
       215  -2.1477507934e+000   1.4139206938e-001
       216  -2.0097317666e+000   7.4757420935e-001
       217  -1.9084689004e+000   1.3685230704e+000
       218  -1.3358812050e+000   1.6750185194e+000
       219  -7.9244968928e-001   2.0204914257e+000
       220  -3.0990236940e-001   2.2800428126e+000
       221   2.4491282191e-001   2.1577510137e+000
       222   9.1641305461e-001   2.0085047983e+000
       223   1.4696909248e+000   1.5674710366e+000
       224   1.9580852922e+000   1.1797829061e+000
       225   2.0385938838e+000   5.1692814122e-001
       226   2.2346684602e+000  -2.1813661038e-001
       227  -1.3308984527e+000   9.6898819679e-001
       228  -1.5624233464e+000   3.2705638961e-001
       229  -1.7276684856e+000  -2.0361365864e-001
       230  -1.5471683030e+000  -7.7802443506e-001
       231  -1.0729455313e+000  -1.2564288439e+000
       232  -6.7335893001e-001  -1.6338316041e+000
       233  -1.4223882543e-001  -1.6455421164e+000
       234   5.2867638303e-001  -1.5350780065e+000
       235   1.0992049334e+000  -1.0922791083e+000
       236   1.6198025315e+000  -6.2838593489e-001
       237  -7.4926497303e-001   1.3804726472e+000
       238  -2.1646267243e-001   1.7190483143e+000
       239   3.9646264655e-001   1.5331792818e+000
       240   9.5687266338e-001   1.3661039525e+000
       241   1.3533441311e+000   8.2722133802e-001
       242   1.5283475850e+000   6.9822514425e-002
       243   1.0100818551e+000  -3.9665197028e-001
       244   5.0022199764e-001  -8.2474805936e-001
       245   6.0994929295e-002  -1.1453620821e+000
       246  -4.7478826086e-001  -1.1432646611e+000
       247  -8.4844743131e-001  -6.7842459444e-001
       248  -1.2093574190e+000  -1.8623665099e-001
       249  -9.7611783374e-001   3.8298153042e-001
       250  -7.0823379110e-001   8.5295636416e-001
       251  -1.0327761513e-001   1.0433805087e+000
       252   8.7045730344e-001   2.7900273620e-001
       253   6.1675768732e-001   9.0630226679e-001
       254   4.0333809695e-001  -1.9232270732e-001
       255  -1.5439638529e-001  -5.8866446739e-001
       256   2.2858253093e-001   4.2637270130e-001
       257  -6.1507177357e-001  -1.1564410789e-001
       258  -3.7402896771e-001   4.3975820052e-001
ENDOFSECTION
      ELEMENTS/CELLS 2.0.4
       1  3  3       50       1      51
       2  3  3       51       1      53
       3  3  3       53       1       2
       4  3  3       53       2      54
       5  3  3       54       2       3
       6  3  3       54       3      55
       7  3  3       55       3       4
       8  3  3       55       4      56
       9  3  3       56       4       5
      10  3  3       56       5      57
      11  3  3       57       5       6
      12  3  3       57       6      58
      13  3  3       58       6       7
      14  3  3       58       7      59
      15  3  3       59       7       8
      16  3  3       59       8      60
      17  3  3       60       8       9
      18  3  3       60       9      61
      19  3  3       61       9      10
      20  3  3       61      10      62
      21  3  3       62      10      11
      22  3  3       62      11      63
      23  3  3       63      11      12
      24  3  3       63      12      64
      25  3  3       64      12      13
      26  3  3       64      13      65
      27  3  3       65      13      14
      28  3  3       65      14      66
      29  3  3       66      14      15
      30  3  3       66      15      67
      31  3  3       67      15      16
      32  3  3       67      16      68
      33  3  3       68      16      17
      34  3  3       68      17      69
      35  3  3       69      17      18
      36  3  3       69      18      70
      37  3  3       70      18      19
      38  3  3       70      19      71
      39  3  3       71      19      20
      40  3  3       71      20      72
      41  3  3       72      20      21
      42  3  3       72      21      73
      43  3  3       73      21      22
      44  3  3       73      22      74
      45  3  3       74      22      23
      46  3  3       74      23      75
      47  3  3       75      23      24
      48  3  3       75      24      76
      49  3  3       76      24      25
      50  3  3       76      25      77
      51  3  3       77      25      26
      52  3  3       77      26      78
      53  3  3       78      26      27
      54  3  3       78      27      79
      55  3  3       79      27      28
      56  3  3       79      28      80
      57  3  3       80      28      29
      58  3  3       80      29      81
      59  3  3       81      29      30
      60  3  3       81      30      82
      61  3  3       82      30      31
      62  3  3       82      31      83
      63  3  3       83      31      32
      64  3  3       83      32      84
      65  3  3       84      32      33
      66  3  3       84      33      85
      67  3  3       85      33      34
      68  3  3       85      34      86
      69  3  3       86      34      35
      70  3  3       86      35      87
      71  3  3       87      35      36
      72  3  3       87      36      88
      73  3  3       88      36      37
      74  3  3       88      37      89
      75  3  3       89      37      38
      76  3  3       89      38      90
      77  3  3       90      38      39
      78  3  3       90      39      91
      79  3  3       91      39      40
      80  3  3       91      40      92
      81  3  3       92      40      41
      82  3  3       92      41      93
      83  3  3       93      41      42
      84  3  3       93      42      94
      85  3  3       94      42      43
      86  3  3       94      43      95
      87  3  3       95      43      44
      88  3  3       95      44      96
      89  3  3       96      44      45
      90  3  3       96      45      97
      91  3  3       97      45      46
      92  3  3       97      46      98
      93  3  3       98      46      47
      94  3  3       98      47      99
      95  3  3       99      47      48
      96  3  3       99      48     100
      97  3  3      100      48      49
      98  3  3      100      49     101
      99  3  3      101      49      50
     100  3  3      101      50      51
     101  3  3       55      56     102
     102  3  3       55     102     103
     103  3  3       55     103      54
     104  3  3       53      54     104
     105  3  3      104      54     103
     106  3  3       51      53     105
     107  3  3      105      53     104
     108  3  3       56      57     106
     109  3  3       56     106     102
     110  3  3       57      58     107
     111  3  3       57     107     106
     112  3  3       58      59     108
     113  3  3       58     108     107
     114  3  3       59      60     108
     115  3  3       60      61     109
     116  3  3       60     109     108
     117  3  3       61      62     110
     118  3  3       61     110     109
     119  3  3       62      63     111
     120  3  3       62     111     110
     121  3  3       63      64     112
     122  3  3       63     112     111
     123  3  3       64      65     112
     124  3  3       65      66     113
     125  3  3       65     113     112
     126  3  3       66      67     114
     127  3  3       66     114     113
     128  3  3       67      68     115
     129  3  3       67     115     114
     130  3  3       68      69     115
     131  3  3       69      70     116
     132  3  3       69     116     115
     133  3  3       70      71     117
     134  3  3       70     117     116
     135  3  3       71      72     118
     136  3  3       71     118     117
     137  3  3       72      73     118
     138  3  3       73      74     119
     139  3  3       73     119     118
     140  3  3       74      75     120
     141  3  3       74     120     119
     142  3  3       75      76     121
     143  3  3       75     121     120
     144  3  3       76      77     121
     145  3  3       77      78     122
     146  3  3       77     122     121
     147  3  3       78      79     123
     148  3  3       78     123     122
     149  3  3       79      80     124
     150  3  3       79     124     123
     151  3  3       80      81     124
     152  3  3       81      82     125
     153  3  3       81     125     124
     154  3  3       82      83     126
     155  3  3       82     126     125
     156  3  3       83      84     127
     157  3  3       83     127     126
     158  3  3       84      85     127
     159  3  3       85      86     128
     160  3  3       85     128     127
     161  3  3       86      87     129
     162  3  3       86     129     128
     163  3  3       87      88     130
     164  3  3       87     130     129
     165  3  3       88      89     131
     166  3  3       88     131     130
     167  3  3       89      90     131
     168  3  3       90      91     132
     169  3  3       90     132     131
     170  3  3       91      92     133
     171  3  3       91     133     132
     172  3  3       92      93     134
     173  3  3       92     134     133
     174  3  3       93      94     134
     175  3  3       94      95     135
     176  3  3       94     135     134
     177  3  3       95      96     136
     178  3  3       95     136     135
     179  3  3       96      97     137
     180  3  3       96     137     136
     181  3  3       97      98     137
     182  3  3       98      99     138
     183  3  3       98     138     137
     184  3  3       99     100     139
     185  3  3       99     139     138
     186  3  3      100     101     140
     187  3  3      100     140     139
     188  3  3      101      51     140
     189  3  3       51     105     140
     190  3  3      102     106     141
     191  3  3      102     141     142
     192  3  3      102     142     103
     193  3  3      104     103     143
     194  3  3      143     103     142
     195  3  3      105     104     144
     196  3  3      144     104     143
     197  3  3      106     107     145
     198  3  3      106     145     141
     199  3  3      107     108     146
     200  3  3      107     146     145
     201  3  3      108     109     146
     202  3  3      109     110     147
     203  3  3      109     147     146
     204  3  3      110     111     148
     205  3  3      110     148     147
     206  3  3      111     112     149
     207  3  3      111     149     148
     208  3  3      112     113     149
     209  3  3      113     114     150
     210  3  3      113     150     149
     211  3  3      114     115     151
     212  3  3      114     151     150
     213  3  3      115     116     152
     214  3  3      115     152     151
     215  3  3      116     117     153
     216  3  3      116     153     152
     217  3  3      117     118     154
     218  3  3      117     154     153
     219  3  3      118     119     155
     220  3  3      118     155     154
     221  3  3      119     120     156
     222  3  3      119     156     155
     223  3  3      120     121     157
     224  3  3      120     157     156
     225  3  3      121     122     158
     226  3  3      121     158     157
     227  3  3      122     123     159
     228  3  3      122     159     158
     229  3  3      123     124     160
     230  3  3      123     160     159
     231  3  3      124     125     161
     232  3  3      124     161     160
     233  3  3      125     126     162
     234  3  3      125     162     161
     235  3  3      126     127     163
     236  3  3      126     163     162
     237  3  3      127     128     164
     238  3  3      127     164     163
     239  3  3      128     129     165
     240  3  3      128     165     164
     241  3  3      129     130     166
     242  3  3      129     166     165
     243  3  3      130     131     167
     244  3  3      130     167     166
     245  3  3      131     132     167
     246  3  3      132     133     168
     247  3  3      132     168     167
     248  3  3      133     134     169
     249  3  3      133     169     168
     250  3  3      134     135     170
     251  3  3      134     170     169
     252  3  3      135     136     171
     253  3  3      135     171     170
     254  3  3      136     137     172
     255  3  3      136     172     171
     256  3  3      137     138     173
     257  3  3      137     173     172
     258  3  3      138     139     174
     259  3  3      138     174     173
     260  3  3      139     140     175
     261  3  3      139     175     174
     262  3  3      140     105     144
     263  3  3      175     140     144
     264  3  3      169     170     176
     265  3  3      176     170     177
     266  3  3      177     170     171
     267  3  3      171     172     178
     268  3  3      171     178     177
     269  3  3      172     173     179
     270  3  3      172     179     178
     271  3  3      173     174     179
     272  3  3      168     169     180
     273  3  3      180     169     176
     274  3  3      167     168     181
     275  3  3      181     168     180
     276  3  3      166     167     182
     277  3  3      182     167     181
     278  3  3      165     166     183
     279  3  3      183     166     182
     280  3  3      164     165     184
     281  3  3      184     165     183
     282  3  3      163     164     184
     283  3  3      162     163     185
     284  3  3      185     163     184
     285  3  3      161     162     186
     286  3  3      186     162     185
     287  3  3      160     161     187
     288  3  3      187     161     186
     289  3  3      159     160     187
     290  3  3      174     175     188
     291  3  3      174     188     179
     292  3  3      158     159     189
     293  3  3      189     159     187
     294  3  3      157     158     190
     295  3  3      190     158     189
     296  3  3      156     157     191
     297  3  3      191     157     190
     298  3  3      155     156     192
     299  3  3      192     156     191
     300  3  3      154     155     192
     301  3  3      153     154     193
     302  3  3      193     154     192
     303  3  3      152     153     194
     304  3  3      194     153     193
     305  3  3      151     152     195
     306  3  3      195     152     194
     307  3  3      150     151     195
     308  3  3      149     150     196
     309  3  3      196     150     195
     310  3  3      148     149     197
     311  3  3      197     149     196
     312  3  3      147     148     198
     313  3  3      198     148     197
     314  3  3      146     147     199
     315  3  3      199     147     198
     316  3  3      145     146     200
     317  3  3      200     146     199
     318  3  3      141     145     201
     319  3  3      201     145     200
     320  3  3      142     141     202
     321  3  3      202     141     201
     322  3  3      143     142     203
     323  3  3      203     142     202
     324  3  3      144     143     204
     325  3  3      204     143     203
     326  3  3      175     144     204
     327  3  3      188     175     204
     328  3  3      179     188     205
     329  3  3      179     205     206
     330  3  3      179     206     178
     331  3  3      177     178     207
     332  3  3      207     178     206
     333  3  3      176     177     207
     334  3  3      180     176     208
     335  3  3      208     176     207
     336  3  3      181     180     209
     337  3  3      209     180     208
     338  3  3      182     181     210
     339  3  3      210     181     209
     340  3  3      183     182     210
     341  3  3      184     183     211
     342  3  3      211     183     210
     343  3  3      185     184     212
     344  3  3      212     184     211
     345  3  3      186     185     213
     346  3  3      213     185     212
     347  3  3      187     186     213
     348  3  3      189     187     214
     349  3  3      214     187     213
     350  3  3      190     189     215
     351  3  3      215     189     214
     352  3  3      191     190     216
     353  3  3      216     190     215
     354  3  3      192     191     217
     355  3  3      217     191     216
     356  3  3      193     192     217
     357  3  3      194     193     218
     358  3  3      218     193     217
     359  3  3      195     194     219
     360  3  3      219     194     218
     361  3  3      196     195     220
     362  3  3      220     195     219
     363  3  3      197     196     221
     364  3  3      221     196     220
     365  3  3      198     197     222
     366  3  3      222     197     221
     367  3  3      199     198     222
     368  3  3      200     199     223
     369  3  3      223     199     222
     370  3  3      201     200     224
     371  3  3      224     200     223
     372  3  3      202     201     224
     373  3  3      203     202     225
     374  3  3      225     202     224
     375  3  3      204     203     226
     376  3  3      226     203     225
     377  3  3      188     204     226
     378  3  3      205     188     226
     379  3  3      218     217     227
     380  3  3      227     217     216
     381  3  3      216     215     228
     382  3  3      216     228     227
     383  3  3      215     214     229
     384  3  3      215     229     228
     385  3  3      214     213     230
     386  3  3      214     230     229
     387  3  3      213     212     230
     388  3  3      212     211     231
     389  3  3      212     231     230
     390  3  3      211     210     232
     391  3  3      211     232     231
     392  3  3      210     209     233
     393  3  3      210     233     232
     394  3  3      209     208     234
     395  3  3      209     234     233
     396  3  3      208     207     234
     397  3  3      207     206     235
     398  3  3      207     235     234
     399  3  3      206     205     236
     400  3  3      206     236     235
     401  3  3      219     218     237
     402  3  3      237     218     227
     403  3  3      220     219     238
     404  3  3      238     219     237
     405  3  3      221     220     238
     406  3  3      222     221     239
     407  3  3      239     221     238
     408  3  3      223     222     240
     409  3  3      240     222     239
     410  3  3      224     223     241
     411  3  3      241     223     240
     412  3  3      225     224     241
     413  3  3      226     225     242
     414  3  3      242     225     241
     415  3  3      236     205     226
     416  3  3      226     242     236
     417  3  3      235     236     243
     418  3  3      243     236     242
     419  3  3      234     235     244
     420  3  3      244     235     243
     421  3  3      233     234     245
     422  3  3      245     234     244
     423  3  3      232     233     246
     424  3  3      246     233     245
     425  3  3      231     232     246
     426  3  3      230     231     247
     427  3  3      247     231     246
     428  3  3      229     230     248
     429  3  3      248     230     247
     430  3  3      228     229     248
     431  3  3      227     228     249
     432  3  3      249     228     248
     433  3  3      237     227     250
     434  3  3      250     227     249
     435  3  3      238     237     251
     436  3  3      251     237     250
     437  3  3      239     238     251
     438  3  3      242     241     252
     439  3  3      242     252     243
     440  3  3      241     240     253
     441  3  3      241     253     252
     442  3  3      240     239     253
     443  3  3      239     251     253
     444  3  3      244     243     254
     445  3  3      254     243     252
     446  3  3      245     244     255
     447  3  3      255     244     254
     448  3  3      246     245     255
     449  3  3      247     246     255
     450  3  3      252     253     256
     451  3  3      252     256     254
     452  3  3      248     247     257
     453  3  3      257     247     255
     454  3  3      249     248     257
     455  3  3      250     249     258
     456  3  3      258     249     257
     457  3  3      251     250     258
     458  3  3      256     253     251
     459  3  3      251     258     256
     460  3  3      255     254      52
     461  3  3      255      52     257
     462  3  3      254     256      52
     463  3  3      258     257      52
     464  3  3      258      52     256
ENDOFSECTION
       ELEMENT GROUP 2.0.4
GROUP:          1 ELEMENTS:        464 MATERIAL:          2 NFLAGS:          1
                           fluid
       0
       1       2       3       4       5       6       7       8       9      10
      11      12      13      14      15      16      17      18      19      20
      21      22      23      24      25      26      27      28      29      30
      31      32      33      34      35      36      37      38      39      40
      41      42      43      44      45      46      47      48      49      50
      51      52      53      54      55      56      57      58      59      60
      61      62      63      64      65      66      67      68      69      70
      71      72      73      74      75      76      77      78      79      80
      81      82      83      84      85      86      87      88      89      90
      91      92      93      94      95      96      97      98      99     100
     101     102     103     104     105     106     107     108     109     110
     111     112     113     114     115     116     117     118     119     120
     121     122     123     124     125     126     127     128     129     130
     131     132     133     134     135     136     137     138     139     140
     141     142     143     144     145     146     147     148     149     150
     151     152     153     154     155     156     157     158     159     160
     161     162     163     164     165     166     167     168     169     170
     171     172     173     174     175     176     177     178     179     180
     181     182     183     184     185     186     187     188     189     190
     191     192     193     194     195     196     197     198     199     200
     201     202     203     204     205     206     207     208     209     210
     211     212     213     214     215     216     217     218     219     220
     221     222     223     224     225     226     227     228     229     230
     231     232     233     234     235     236     237     238     239     240
     241     242     243     244     245     246     247     248     249     250
     251     252     253     254     255     256     257     258     259     260
     261     262     263     264     265     266     267     268     269     270
     271     272     273     274     275     276     277     278     279     280
     281     282     283     284     285     286     287     288     289     290
     291     292     293     294     295     296     297     298     299     300
     301     302     303     304     305     306     307     308     309     310
     311     312     313     314     315     316     317     318     319     320
     321     322     323     324     325     326     327     328     329     330
     331     332     333     334     335     336     337     338     339     340
     341     342     343     344     345     346     347     348     349     350
     351     352     353     354     355     356     357     358     359     360
     361     362     363     364     365     366     367     368     369     370
     371     372     373     374     375     376     377     378     379     380
     381     382     383     384     385     386     387     388     389     390
     391     392     393     394     395     396     397     398     399     400
     401     402     403     404     405     406     407     408     409     410
     411     412     413     414     415     416     417     418     419     420
     421     422     423     424     425     426     427     428     429     430
     431     432     433     434     435     436     437     438     439     440
     441     442     443     444     445     446     447     448     449     450
     451     452     453     454     455     456     457     458     459     460
     461     462     463     464
ENDOFSECTION
 BOUNDARY CONDITIONS 2.0.4
                  element_side.2       1      50       0       6
         3    3    2
         5    3    2
         7    3    2
         9    3    2
        11    3    2
        13    3    2
        15    3    2
        17    3    2
        19    3    2
        21    3    2
        23    3    2
        25    3    2
        27    3    2
        29    3    2
        31    3    2
        33    3    2
        35    3    2
        37    3    2
        39    3    2
        41    3    2
        43    3    2
        45    3    2
        47    3    2
        49    3    2
        51    3    2
        53    3    2
        55    3    2
        57    3    2
        59    3    2
        61    3    2
        63    3    2
        65    3    2
        67    3    2
        69    3    2
        71    3    2
        73    3    2
        75    3    2
        77    3    2
        79    3    2
        81    3    2
        83    3    2
        85    3    2
        87    3    2
        89    3    2
        91    3    2
        93    3    2
        95    3    2
        97    3    2
        99    3    2
         1    3    1
ENDOFSECTION
